<svg xmlns="http://www.w3.org/2000/svg" xmlns:xlink="http://www.w3.org/1999/xlink" width="501" zoomAndPan="magnify" viewBox="0 0 375.75 219.75" height="293" preserveAspectRatio="xMidYMid meet" version="1.0"><defs><filter x="0%" y="0%" width="100%" height="100%" id="6664d8cf5a"><feColorMatrix values="0 0 0 0 1 0 0 0 0 1 0 0 0 0 1 0 0 0 1 0" color-interpolation-filters="sRGB"/></filter><g/><clipPath id="93de30d73e"><path d="M 0.0898438 56.59375 L 105.71875 56.59375 L 105.71875 162 L 0.0898438 162 Z M 0.0898438 56.59375 " clip-rule="nonzero"/></clipPath><mask id="ed17947443"><g filter="url(#6664d8cf5a)"><rect x="-37.575" width="450.9" fill="#000000" y="-21.975" height="263.7" fill-opacity="0.1"/></g></mask><clipPath id="ab9d681076"><path d="M 0.882812 71 L 98.929688 71 L 98.929688 85.515625 L 0.882812 85.515625 Z M 0.882812 71 " clip-rule="nonzero"/></clipPath><clipPath id="097165b4fe"><path d="M 0.882812 36 L 98.929688 36 L 98.929688 51 L 0.882812 51 Z M 0.882812 36 " clip-rule="nonzero"/></clipPath><clipPath id="5ffaf5069a"><path d="M 0.882812 1 L 98.929688 1 L 98.929688 16 L 0.882812 16 Z M 0.882812 1 " clip-rule="nonzero"/></clipPath><clipPath id="f77b329a62"><rect x="0" width="99" y="0" height="86"/></clipPath><mask id="c184896779"><g filter="url(#6664d8cf5a)"><rect x="-37.575" width="450.9" fill="#000000" y="-21.975" height="263.7" fill-opacity="0.1"/></g></mask><clipPath id="b9702ecae2"><path d="M 0.480469 0.324219 L 18.460938 0.324219 L 18.460938 86.625 L 0.480469 86.625 Z M 0.480469 0.324219 " clip-rule="nonzero"/></clipPath><clipPath id="77363f54b2"><rect x="0" width="19" y="0" height="87"/></clipPath></defs><g clip-path="url(#93de30d73e)"><path fill="#5b7c42" d="M 18.332031 61.121094 L 103.492188 61.121094 C 104.730469 61.121094 105.734375 60.117188 105.734375 58.878906 C 105.734375 57.640625 104.730469 56.640625 103.492188 56.640625 L 17.988281 56.640625 C 8.292969 56.640625 0.4375 64.496094 0.4375 74.1875 C 0.4375 83.878906 8.292969 91.738281 17.988281 91.738281 C 8.292969 91.738281 0.4375 99.59375 0.4375 109.285156 C 0.4375 118.976562 8.292969 126.835938 17.988281 126.835938 C 8.082031 126.835938 0.09375 135.039062 0.449219 145.023438 C 0.789062 154.535156 8.894531 161.933594 18.410156 161.933594 L 103.496094 161.933594 C 104.734375 161.933594 105.734375 160.933594 105.734375 159.699219 C 105.734375 158.460938 104.730469 157.460938 103.496094 157.460938 L 18.335938 157.460938 C 11.023438 157.460938 4.796875 151.476562 4.917969 144.167969 C 5.035156 137.0625 10.855469 131.316406 17.988281 131.316406 L 103.496094 131.316406 C 104.734375 131.316406 105.734375 130.316406 105.734375 129.082031 L 105.734375 124.605469 C 105.734375 123.367188 104.730469 122.367188 103.496094 122.367188 L 18.332031 122.367188 C 11.023438 122.367188 4.796875 116.386719 4.914062 109.078125 C 5.03125 101.972656 10.851562 96.226562 17.988281 96.226562 L 103.492188 96.226562 C 104.730469 96.226562 105.734375 95.222656 105.734375 93.984375 L 105.734375 89.511719 C 105.734375 88.273438 104.730469 87.269531 103.492188 87.269531 L 17.984375 87.269531 C 10.851562 87.269531 5.03125 81.527344 4.914062 74.417969 C 4.796875 67.101562 11.023438 61.121094 18.332031 61.121094 Z M 18.332031 61.121094 " fill-opacity="1" fill-rule="nonzero"/></g><path fill="#faf3e4" d="M 17.988281 87.261719 C 10.777344 87.261719 4.914062 81.394531 4.914062 74.191406 C 4.914062 66.980469 10.78125 61.121094 17.988281 61.121094 L 102.691406 61.121094 L 102.691406 87.265625 L 17.988281 87.265625 Z M 102.691406 122.359375 L 102.691406 96.214844 L 17.988281 96.214844 C 10.777344 96.214844 4.914062 102.078125 4.914062 109.285156 C 4.914062 116.492188 10.78125 122.355469 17.988281 122.355469 L 102.691406 122.355469 Z M 102.691406 157.460938 L 102.691406 131.316406 L 17.988281 131.316406 C 10.777344 131.316406 4.914062 137.179688 4.914062 144.386719 C 4.914062 151.59375 10.78125 157.457031 17.988281 157.457031 L 102.691406 157.457031 Z M 102.691406 157.460938 " fill-opacity="1" fill-rule="nonzero"/><g mask="url(#ed17947443)"><g transform="matrix(1, 0, 0, 1, 4, 60)"><g clip-path="url(#f77b329a62)"><g clip-path="url(#ab9d681076)"><path fill="#000000" d="M 0.914062 84.386719 C 0.914062 84.730469 0.9375 85.074219 0.964844 85.414062 C 1.492188 78.6875 7.125 73.371094 13.984375 73.371094 L 98.6875 73.371094 L 98.6875 71.3125 L 13.988281 71.3125 C 6.777344 71.316406 0.914062 77.179688 0.914062 84.386719 Z M 0.914062 84.386719 " fill-opacity="1" fill-rule="nonzero"/></g><g clip-path="url(#097165b4fe)"><path fill="#000000" d="M 0.914062 49.289062 C 0.914062 49.632812 0.9375 49.976562 0.964844 50.316406 C 1.492188 43.589844 7.125 38.273438 13.984375 38.273438 L 98.6875 38.273438 L 98.6875 36.214844 L 13.988281 36.214844 C 6.777344 36.21875 0.914062 42.078125 0.914062 49.289062 Z M 0.914062 49.289062 " fill-opacity="1" fill-rule="nonzero"/></g><g clip-path="url(#5ffaf5069a)"><path fill="#000000" d="M 13.988281 1.121094 C 6.777344 1.121094 0.914062 6.984375 0.914062 14.191406 C 0.914062 14.539062 0.941406 14.878906 0.964844 15.21875 C 1.492188 8.492188 7.128906 3.175781 13.988281 3.175781 L 98.691406 3.175781 L 98.691406 1.117188 L 13.988281 1.117188 Z M 13.988281 1.121094 " fill-opacity="1" fill-rule="nonzero"/></g></g></g></g><path fill="#e6b187" d="M 102.691406 68.886719 L 16.003906 68.886719 L 16.003906 68.441406 L 102.691406 68.441406 Z M 102.691406 73.96875 L 16.003906 73.96875 L 16.003906 74.414062 L 102.691406 74.414062 Z M 102.691406 79.492188 L 16.003906 79.492188 L 16.003906 79.9375 L 102.691406 79.9375 Z M 102.691406 103.539062 L 16.003906 103.539062 L 16.003906 103.984375 L 102.691406 103.984375 Z M 102.691406 109.066406 L 16.003906 109.066406 L 16.003906 109.511719 L 102.691406 109.511719 Z M 102.691406 114.589844 L 16.003906 114.589844 L 16.003906 115.035156 L 102.691406 115.035156 Z M 102.691406 138.636719 L 16.003906 138.636719 L 16.003906 139.082031 L 102.691406 139.082031 Z M 102.691406 144.164062 L 16.003906 144.164062 L 16.003906 144.609375 L 102.691406 144.609375 Z M 102.691406 149.6875 L 16.003906 149.6875 L 16.003906 150.132812 L 102.691406 150.132812 Z M 102.691406 149.6875 " fill-opacity="1" fill-rule="nonzero"/><g mask="url(#c184896779)"><g transform="matrix(1, 0, 0, 1, 78, 68)"><g clip-path="url(#77363f54b2)"><g clip-path="url(#b9702ecae2)"><path fill="#000000" d="M 18.179688 86.25 L 9.558594 78.792969 L 0.9375 86.25 L 0.9375 0.441406 L 18.179688 0.441406 Z M 18.179688 86.25 " fill-opacity="1" fill-rule="nonzero"/></g></g></g></g><path fill="#428a9b" d="M 94.261719 152.0625 L 85.640625 144.601562 L 77.019531 152.0625 L 77.019531 68.441406 L 94.261719 68.441406 Z M 94.261719 152.0625 " fill-opacity="1" fill-rule="nonzero"/><g fill="#5b7c42" fill-opacity="1"><g transform="translate(120.620225, 103.694101)"><g><path d="M 30.53125 0.75 C 28.007812 0.75 25.800781 0.300781 23.90625 -0.59375 C 22.019531 -1.5 20.460938 -2.6875 19.234375 -4.15625 C 18.015625 -5.632812 17.113281 -7.234375 16.53125 -8.953125 L 15.765625 -8.953125 L 14.890625 0 L 4.296875 0 C 4.378906 -3.320312 4.429688 -6.316406 4.453125 -8.984375 C 4.472656 -11.660156 4.492188 -14.226562 4.515625 -16.6875 C 4.535156 -19.144531 4.546875 -21.722656 4.546875 -24.421875 C 4.546875 -28.453125 4.523438 -32.367188 4.484375 -36.171875 C 4.441406 -39.984375 4.378906 -43.722656 4.296875 -47.390625 L 16.78125 -48.515625 L 16.71875 -40.375 C 16.71875 -39.238281 16.664062 -38.257812 16.5625 -37.4375 C 16.457031 -36.625 16.34375 -35.804688 16.21875 -34.984375 C 16.09375 -34.160156 15.941406 -33.203125 15.765625 -32.109375 L 16.65625 -32.109375 C 17.539062 -34.421875 18.769531 -36.269531 20.34375 -37.65625 C 21.925781 -39.050781 23.648438 -40.0625 25.515625 -40.6875 C 27.390625 -41.320312 29.210938 -41.640625 30.984375 -41.640625 C 34.472656 -41.640625 37.25 -40.765625 39.3125 -39.015625 C 41.375 -37.273438 42.851562 -34.816406 43.75 -31.640625 C 44.65625 -28.460938 45.109375 -24.726562 45.109375 -20.4375 C 45.109375 -13.789062 43.898438 -8.597656 41.484375 -4.859375 C 39.066406 -1.117188 35.414062 0.75 30.53125 0.75 Z M 25.234375 -8.015625 C 27.378906 -8.015625 29.164062 -8.601562 30.59375 -9.78125 C 31.3125 -11.164062 31.878906 -12.75 32.296875 -14.53125 C 32.722656 -16.320312 32.9375 -18.25 32.9375 -20.3125 C 32.9375 -21.570312 32.816406 -22.882812 32.578125 -24.25 C 32.347656 -25.625 31.96875 -26.898438 31.4375 -28.078125 C 30.914062 -29.253906 30.210938 -30.195312 29.328125 -30.90625 C 28.453125 -31.625 27.382812 -31.984375 26.125 -31.984375 C 24.0625 -31.984375 22.21875 -31.382812 20.59375 -30.1875 C 18.976562 -28.988281 17.6875 -27.421875 16.71875 -25.484375 C 16.675781 -24.472656 16.632812 -23.546875 16.59375 -22.703125 C 16.550781 -21.867188 16.53125 -20.71875 16.53125 -19.25 C 16.53125 -16.59375 17.015625 -14.441406 17.984375 -12.796875 C 18.953125 -11.160156 20.109375 -9.953125 21.453125 -9.171875 C 22.796875 -8.398438 24.054688 -8.015625 25.234375 -8.015625 Z M 25.234375 -8.015625 "/></g></g></g><g fill="#5b7c42" fill-opacity="1"><g transform="translate(168.369152, 103.694101)"><g><path d="M 23.15625 0.75 C 16.550781 0.75 11.492188 -1.046875 7.984375 -4.640625 C 4.472656 -8.234375 2.71875 -13.457031 2.71875 -20.3125 C 2.71875 -27.207031 4.472656 -32.492188 7.984375 -36.171875 C 11.492188 -39.859375 16.550781 -41.703125 23.15625 -41.703125 C 29.925781 -41.703125 35.109375 -39.875 38.703125 -36.21875 C 42.304688 -32.5625 44.109375 -27.28125 44.109375 -20.375 C 44.109375 -13.519531 42.304688 -8.285156 38.703125 -4.671875 C 35.109375 -1.054688 29.925781 0.75 23.15625 0.75 Z M 24.234375 -7.953125 C 25.242188 -7.953125 26.21875 -8.097656 27.15625 -8.390625 C 28.101562 -8.679688 28.914062 -9.125 29.59375 -9.71875 C 30.300781 -11.101562 30.851562 -12.6875 31.25 -14.46875 C 31.65625 -16.257812 31.859375 -18.25 31.859375 -20.4375 C 31.859375 -24.394531 31.054688 -27.476562 29.453125 -29.6875 C 27.859375 -31.894531 25.53125 -33 22.46875 -33 C 20.019531 -33 18.039062 -32.132812 16.53125 -30.40625 C 16.019531 -29.019531 15.628906 -27.503906 15.359375 -25.859375 C 15.085938 -24.222656 14.953125 -22.414062 14.953125 -20.4375 C 14.953125 -16.488281 15.726562 -13.421875 17.28125 -11.234375 C 18.84375 -9.046875 21.160156 -7.953125 24.234375 -7.953125 Z M 24.234375 -7.953125 "/></g></g></g><g fill="#5b7c42" fill-opacity="1"><g transform="translate(215.108855, 103.694101)"><g><path d="M 23.15625 0.75 C 16.550781 0.75 11.492188 -1.046875 7.984375 -4.640625 C 4.472656 -8.234375 2.71875 -13.457031 2.71875 -20.3125 C 2.71875 -27.207031 4.472656 -32.492188 7.984375 -36.171875 C 11.492188 -39.859375 16.550781 -41.703125 23.15625 -41.703125 C 29.925781 -41.703125 35.109375 -39.875 38.703125 -36.21875 C 42.304688 -32.5625 44.109375 -27.28125 44.109375 -20.375 C 44.109375 -13.519531 42.304688 -8.285156 38.703125 -4.671875 C 35.109375 -1.054688 29.925781 0.75 23.15625 0.75 Z M 24.234375 -7.953125 C 25.242188 -7.953125 26.21875 -8.097656 27.15625 -8.390625 C 28.101562 -8.679688 28.914062 -9.125 29.59375 -9.71875 C 30.300781 -11.101562 30.851562 -12.6875 31.25 -14.46875 C 31.65625 -16.257812 31.859375 -18.25 31.859375 -20.4375 C 31.859375 -24.394531 31.054688 -27.476562 29.453125 -29.6875 C 27.859375 -31.894531 25.53125 -33 22.46875 -33 C 20.019531 -33 18.039062 -32.132812 16.53125 -30.40625 C 16.019531 -29.019531 15.628906 -27.503906 15.359375 -25.859375 C 15.085938 -24.222656 14.953125 -22.414062 14.953125 -20.4375 C 14.953125 -16.488281 15.726562 -13.421875 17.28125 -11.234375 C 18.84375 -9.046875 21.160156 -7.953125 24.234375 -7.953125 Z M 24.234375 -7.953125 "/></g></g></g><g fill="#5b7c42" fill-opacity="1"><g transform="translate(261.848558, 103.694101)"><g><path d="M 4.296875 0 C 4.335938 -3.78125 4.367188 -7.671875 4.390625 -11.671875 C 4.410156 -15.671875 4.421875 -19.835938 4.421875 -24.171875 C 4.421875 -28.492188 4.410156 -32.484375 4.390625 -36.140625 C 4.367188 -39.804688 4.335938 -43.554688 4.296875 -47.390625 L 16.96875 -48.515625 C 16.925781 -46.492188 16.882812 -44.660156 16.84375 -43.015625 C 16.800781 -41.378906 16.75 -39.695312 16.6875 -37.96875 C 16.625 -36.25 16.570312 -34.296875 16.53125 -32.109375 C 16.488281 -29.921875 16.445312 -27.253906 16.40625 -24.109375 L 19.375 -24.109375 L 30.734375 -40.890625 L 43.53125 -40.890625 C 41.8125 -38.316406 39.972656 -35.660156 38.015625 -32.921875 C 36.054688 -30.191406 34.085938 -27.460938 32.109375 -24.734375 C 31.484375 -23.765625 30.582031 -23.003906 29.40625 -22.453125 C 28.226562 -21.910156 26.484375 -21.597656 24.171875 -21.515625 L 24.171875 -20.828125 C 26.523438 -20.785156 28.257812 -20.457031 29.375 -19.84375 C 30.488281 -19.226562 31.378906 -18.414062 32.046875 -17.40625 C 34.234375 -14.425781 36.367188 -11.523438 38.453125 -8.703125 C 40.535156 -5.890625 42.628906 -2.988281 44.734375 0 L 31.359375 0 L 19.4375 -17.984375 L 16.40625 -17.984375 C 16.445312 -16.847656 16.476562 -15.5625 16.5 -14.125 C 16.519531 -12.695312 16.570312 -10.867188 16.65625 -8.640625 C 16.738281 -6.410156 16.84375 -3.53125 16.96875 0 Z M 4.296875 0 "/></g></g></g><g fill="#5b7c42" fill-opacity="1"><g transform="translate(120.620225, 156.18196)"><g><path d="M 20.5625 0.75 C 14.96875 0.75 10.570312 -0.5 7.375 -3 C 4.1875 -5.5 2.359375 -9.082031 1.890625 -13.75 L 13.0625 -14.765625 C 13.519531 -12.660156 14.429688 -10.988281 15.796875 -9.75 C 17.171875 -8.507812 19.265625 -7.890625 22.078125 -7.890625 C 23.296875 -7.890625 24.359375 -8.003906 25.265625 -8.234375 C 26.171875 -8.460938 27.003906 -8.742188 27.765625 -9.078125 C 28.179688 -9.710938 28.484375 -10.320312 28.671875 -10.90625 C 28.859375 -11.5 28.953125 -12.238281 28.953125 -13.125 C 28.953125 -14.59375 28.226562 -15.609375 26.78125 -16.171875 C 25.332031 -16.742188 22.863281 -17.15625 19.375 -17.40625 C 14.957031 -17.664062 11.535156 -18.34375 9.109375 -19.4375 C 6.691406 -20.53125 5.019531 -21.957031 4.09375 -23.71875 C 3.175781 -25.488281 2.71875 -27.507812 2.71875 -29.78125 C 2.71875 -32.132812 3.472656 -34.203125 4.984375 -35.984375 C 6.492188 -37.773438 8.625 -39.175781 11.375 -40.1875 C 14.132812 -41.195312 17.347656 -41.703125 21.015625 -41.703125 C 27.148438 -41.703125 31.847656 -40.515625 35.109375 -38.140625 C 38.367188 -35.765625 40.273438 -31.632812 40.828125 -25.75 L 29.78125 -24.546875 C 29.363281 -27.191406 28.488281 -29.257812 27.15625 -30.75 C 25.832031 -32.25 23.550781 -33 20.3125 -33 C 19.382812 -33 18.519531 -32.90625 17.71875 -32.71875 C 16.925781 -32.53125 16.253906 -32.285156 15.703125 -31.984375 C 14.785156 -30.679688 14.328125 -29.191406 14.328125 -27.515625 C 14.328125 -26.710938 14.535156 -25.984375 14.953125 -25.328125 C 15.367188 -24.679688 16.195312 -24.15625 17.4375 -23.75 C 18.6875 -23.351562 20.488281 -23.050781 22.84375 -22.84375 C 26.664062 -22.59375 29.703125 -22.140625 31.953125 -21.484375 C 34.203125 -20.828125 35.863281 -20.003906 36.9375 -19.015625 C 38.007812 -18.035156 38.710938 -16.910156 39.046875 -15.640625 C 39.390625 -14.378906 39.5625 -13.015625 39.5625 -11.546875 C 39.5625 -8.984375 38.75 -6.773438 37.125 -4.921875 C 35.507812 -3.066406 33.269531 -1.65625 30.40625 -0.6875 C 27.550781 0.269531 24.269531 0.75 20.5625 0.75 Z M 20.5625 0.75 "/></g></g></g><g fill="#5b7c42" fill-opacity="1"><g transform="translate(163.259954, 156.18196)"><g><path d="M 20.25 0.5625 C 16.257812 0.5625 13.242188 -0.109375 11.203125 -1.453125 C 9.160156 -2.796875 7.78125 -4.820312 7.0625 -7.53125 C 6.351562 -10.25 6 -13.609375 6 -17.609375 L 6 -32.171875 L 0.625 -31.921875 L 0.625 -40.953125 L 5.875 -40.765625 C 5.875 -42.234375 5.859375 -43.546875 5.828125 -44.703125 C 5.804688 -45.859375 5.796875 -47.085938 5.796875 -48.390625 C 7.898438 -48.390625 10.003906 -48.429688 12.109375 -48.515625 C 14.210938 -48.597656 16.316406 -48.703125 18.421875 -48.828125 C 18.378906 -47.148438 18.359375 -45.722656 18.359375 -44.546875 C 18.359375 -43.367188 18.335938 -42.109375 18.296875 -40.765625 C 19.179688 -40.765625 20.273438 -40.773438 21.578125 -40.796875 C 22.878906 -40.816406 24.203125 -40.847656 25.546875 -40.890625 C 26.898438 -40.929688 28.054688 -40.953125 29.015625 -40.953125 C 28.972656 -40.191406 28.921875 -39.453125 28.859375 -38.734375 C 28.796875 -38.023438 28.765625 -37.269531 28.765625 -36.46875 C 28.765625 -35.75 28.742188 -35.019531 28.703125 -34.28125 C 28.660156 -33.550781 28.640625 -32.765625 28.640625 -31.921875 L 18.234375 -32.171875 C 18.234375 -30.617188 18.234375 -28.882812 18.234375 -26.96875 C 18.234375 -25.0625 18.234375 -23.179688 18.234375 -21.328125 C 18.234375 -19.472656 18.234375 -17.8125 18.234375 -16.34375 C 18.234375 -14.28125 18.410156 -12.488281 18.765625 -10.96875 C 19.128906 -9.457031 19.941406 -8.703125 21.203125 -8.703125 C 22.421875 -8.703125 23.742188 -8.773438 25.171875 -8.921875 C 26.597656 -9.078125 27.796875 -9.238281 28.765625 -9.40625 C 28.765625 -8.726562 28.734375 -7.8125 28.671875 -6.65625 C 28.609375 -5.5 28.554688 -4.34375 28.515625 -3.1875 C 28.472656 -2.03125 28.453125 -1.070312 28.453125 -0.3125 C 27.273438 -0.0625 25.96875 0.144531 24.53125 0.3125 C 23.101562 0.476562 21.675781 0.5625 20.25 0.5625 Z M 20.25 0.5625 "/></g></g></g><g fill="#5b7c42" fill-opacity="1"><g transform="translate(193.662839, 156.18196)"><g><path d="M 23.15625 0.75 C 16.550781 0.75 11.492188 -1.046875 7.984375 -4.640625 C 4.472656 -8.234375 2.71875 -13.457031 2.71875 -20.3125 C 2.71875 -27.207031 4.472656 -32.492188 7.984375 -36.171875 C 11.492188 -39.859375 16.550781 -41.703125 23.15625 -41.703125 C 29.925781 -41.703125 35.109375 -39.875 38.703125 -36.21875 C 42.304688 -32.5625 44.109375 -27.28125 44.109375 -20.375 C 44.109375 -13.519531 42.304688 -8.285156 38.703125 -4.671875 C 35.109375 -1.054688 29.925781 0.75 23.15625 0.75 Z M 24.234375 -7.953125 C 25.242188 -7.953125 26.21875 -8.097656 27.15625 -8.390625 C 28.101562 -8.679688 28.914062 -9.125 29.59375 -9.71875 C 30.300781 -11.101562 30.851562 -12.6875 31.25 -14.46875 C 31.65625 -16.257812 31.859375 -18.25 31.859375 -20.4375 C 31.859375 -24.394531 31.054688 -27.476562 29.453125 -29.6875 C 27.859375 -31.894531 25.53125 -33 22.46875 -33 C 20.019531 -33 18.039062 -32.132812 16.53125 -30.40625 C 16.019531 -29.019531 15.628906 -27.503906 15.359375 -25.859375 C 15.085938 -24.222656 14.953125 -22.414062 14.953125 -20.4375 C 14.953125 -16.488281 15.726562 -13.421875 17.28125 -11.234375 C 18.84375 -9.046875 21.160156 -7.953125 24.234375 -7.953125 Z M 24.234375 -7.953125 "/></g></g></g><g fill="#5b7c42" fill-opacity="1"><g transform="translate(240.402542, 156.18196)"><g><path d="M 30.28125 -41.640625 C 32.9375 -41.640625 35.03125 -40.96875 36.5625 -39.625 C 38.09375 -38.28125 39.226562 -36.21875 39.96875 -33.4375 C 40.707031 -30.664062 41.203125 -27.113281 41.453125 -22.78125 L 29.34375 -21.453125 C 29.34375 -24.859375 28.972656 -27.410156 28.234375 -29.109375 C 27.492188 -30.816406 26.203125 -31.671875 24.359375 -31.671875 C 23.003906 -31.671875 21.664062 -31.144531 20.34375 -30.09375 C 19.019531 -29.039062 17.832031 -27.695312 16.78125 -26.0625 L 16.84375 -25.9375 C 16.800781 -24.625 16.757812 -23.617188 16.71875 -22.921875 C 16.675781 -22.234375 16.644531 -21.664062 16.625 -21.21875 C 16.601562 -20.78125 16.59375 -20.269531 16.59375 -19.6875 C 16.59375 -16.113281 16.601562 -12.726562 16.625 -9.53125 C 16.644531 -6.332031 16.71875 -3.15625 16.84375 0 L 4.296875 0 C 4.421875 -3.195312 4.492188 -6.5 4.515625 -9.90625 C 4.535156 -13.3125 4.546875 -16.800781 4.546875 -20.375 C 4.546875 -23.863281 4.535156 -27.34375 4.515625 -30.8125 C 4.492188 -34.289062 4.441406 -37.628906 4.359375 -40.828125 L 16.84375 -40.828125 L 15.578125 -32.109375 L 16.34375 -32.046875 C 17.6875 -35.242188 19.640625 -37.640625 22.203125 -39.234375 C 24.773438 -40.835938 27.46875 -41.640625 30.28125 -41.640625 Z M 30.28125 -41.640625 "/></g></g></g><g fill="#5b7c42" fill-opacity="1"><g transform="translate(282.222273, 156.18196)"><g><path d="M 42.59375 -20.5625 L 14.890625 -20.4375 L 14.890625 -20.1875 C 14.890625 -16.613281 15.59375 -13.691406 17 -11.421875 C 18.414062 -9.148438 20.59375 -8.015625 23.53125 -8.015625 C 24.5 -8.015625 25.46875 -8.171875 26.4375 -8.484375 C 27.40625 -8.796875 28.242188 -9.226562 28.953125 -9.78125 C 29.835938 -11.84375 30.40625 -14.03125 30.65625 -16.34375 L 42.40625 -16.09375 C 42.019531 -12.425781 41.113281 -9.34375 39.6875 -6.84375 C 38.257812 -4.34375 36.144531 -2.453125 33.34375 -1.171875 C 30.550781 0.109375 26.898438 0.75 22.390625 0.75 C 16.003906 0.75 11.128906 -0.972656 7.765625 -4.421875 C 4.398438 -7.867188 2.71875 -13.144531 2.71875 -20.25 C 2.71875 -27.40625 4.484375 -32.75 8.015625 -36.28125 C 11.546875 -39.8125 16.738281 -41.578125 23.59375 -41.578125 C 29.863281 -41.578125 34.597656 -39.800781 37.796875 -36.25 C 40.992188 -32.695312 42.59375 -27.785156 42.59375 -21.515625 L 42.328125 -21.515625 Z M 22.65625 -32.9375 C 21.476562 -32.9375 20.34375 -32.710938 19.25 -32.265625 C 18.15625 -31.828125 17.1875 -31.226562 16.34375 -30.46875 C 16.050781 -29.632812 15.816406 -28.785156 15.640625 -27.921875 C 15.472656 -27.054688 15.328125 -26.179688 15.203125 -25.296875 L 30.34375 -25.296875 C 29.800781 -27.734375 28.898438 -29.613281 27.640625 -30.9375 C 26.378906 -32.269531 24.71875 -32.9375 22.65625 -32.9375 Z M 22.65625 -32.9375 "/></g></g></g></svg>
